<?xml version="1.0" standalone="no"?><svg xmlns="http://www.w3.org/2000/svg" viewBox="0 0 1440 320"><path fill="#0f2a45" fill-opacity="1" d="M0,320L26.7,293.3C53.3,267,107,213,160,192C213.3,171,267,181,320,202.7C373.3,224,427,256,480,266.7C533.3,277,587,267,640,229.3C693.3,192,747,128,800,112C853.3,96,907,128,960,133.3C1013.3,139,1067,117,1120,122.7C1173.3,128,1227,160,1280,176C1333.3,192,1387,192,1413,192L1440,192L1440,320L1413.3,320C1386.7,320,1333,320,1280,320C1226.7,320,1173,320,1120,320C1066.7,320,1013,320,960,320C906.7,320,853,320,800,320C746.7,320,693,320,640,320C586.7,320,533,320,480,320C426.7,320,373,320,320,320C266.7,320,213,320,160,320C106.7,320,53,320,27,320L0,320Z"></path></svg>